<svg width="320" height="47" viewBox="0 0 320 47" fill="none" xmlns="http://www.w3.org/2000/svg">
<path fill-rule="evenodd" clip-rule="evenodd" d="M106.087 4.15174C70.7988 3.17783 35.3669 6.73703 1.21097 21.6822C0.601573 21.9478 0.348591 22.4702 0.298731 22.5897C0.00695815 23.298 -0.0244892 24.0505 0.012444 24.6703C0.034604 25.0466 0.184249 26.6358 1.00232 26.7996C1.5674 26.9103 5.57829 26.1356 7.1258 25.9364C14.4109 25.0023 21.6813 23.6698 28.9479 22.1293C45.4238 18.6498 61.8776 15.6395 78.3793 12.8993C87.6441 11.3587 96.9125 10.0837 106.175 9.03898C128.459 9.66317 150.687 12.098 172.5 14.6125C163.83 15.8918 155.864 17.1889 149.258 18.03C138.119 19.4466 127 21.1199 115.883 23.3245C110.172 24.4534 104.467 25.6797 98.7665 27.1272C98.1349 27.291 96.6964 27.4592 96.0002 27.6584C95.7047 27.7381 95.4906 27.8665 95.3945 27.9551C94.7925 28.5129 94.7168 29.6549 94.7094 30.2304C94.7057 30.5802 94.7556 32.4882 95.7713 32.86C142.996 50.3108 192.265 30.0091 239.66 46.9729C240.215 47.1721 240.736 46.2513 240.819 44.9144C240.902 43.5819 240.518 42.3335 239.961 42.1343C195.323 26.1577 149.022 43.241 104.327 30.6997C108.233 29.7922 112.14 28.9732 116.051 28.1985C127.148 25.9984 138.246 24.3294 149.367 22.9128C160.558 21.4918 175.686 18.7161 191.521 16.9675C205.11 18.7825 218.693 20.8189 232.284 22.5454C238.018 23.2714 243.754 23.8735 249.486 24.6128C251.842 24.9138 257.905 26.1754 258.784 25.7062C259.467 25.3387 259.631 24.1657 259.672 23.5769C259.714 22.9394 259.689 22.147 259.378 21.39C259.282 21.1509 258.994 20.6551 258.403 20.2479C242.42 9.27363 216.249 9.44627 191.739 12.098C186.466 11.3897 181.194 10.7168 175.92 10.1103C163.847 8.71584 151.64 7.31692 139.364 6.21463C173.961 4.16499 208.575 4.75378 243.198 6.23678C257.735 6.86097 296.919 10.6238 312.352 13.9484C312.163 14.4132 312.053 15.0596 312.065 15.7634C312.091 17.1092 312.57 18.1539 313.133 18.092C316.316 17.7378 318.158 17.2863 318.887 16.8215C319.341 16.5337 319.589 16.0733 319.703 15.7723C319.984 15.0463 320.036 14.2671 319.98 13.5278C319.945 13.0674 319.858 12.5628 319.659 12.098C319.526 11.7792 319.201 11.2923 318.647 10.9603C312.581 7.34352 260.544 2.08878 243.235 1.34506C197.495 -0.611615 151.773 -1.00999 106.087 4.15174ZM246.031 19.2828C237.093 16.3743 226.615 15.3517 215.684 15.4181C221.252 16.1928 226.822 16.9498 232.393 17.6581C236.938 18.2381 241.484 18.7338 246.031 19.2828ZM63.9311 10.4689C52.2048 12.5407 40.4914 14.7807 28.7687 17.2597C27.4151 17.543 26.0634 17.8219 24.7098 18.0964C37.6734 14.2893 50.7718 11.8678 63.9311 10.4689Z" fill="#B8C8C4"/>
</svg>
