<svg width="31" height="25" viewBox="0 0 31 25" fill="none" xmlns="http://www.w3.org/2000/svg">
<path fill-rule="evenodd" clip-rule="evenodd" d="M18.6433 10.3843C18.6361 9.90036 18.5685 9.41224 18.4333 8.9208C17.9589 7.19614 15.8427 6.08892 13.5902 5.8286C11.3387 5.56827 8.9973 6.16068 8.0949 7.66088C7.57874 8.51862 7.50755 9.25788 7.71846 9.88116C7.92849 10.5011 8.42681 11.0151 9.10316 11.4156C10.9889 12.5311 14.2915 12.7589 15.7982 12.2925C16.495 12.0764 17.1758 11.8161 17.8388 11.5182C17.4596 13.4681 16.0473 15.3155 14.1624 16.98C10.0661 20.5979 3.7093 23.3438 0.247456 24.3534C0.0614604 24.4076 -0.0417805 24.5929 0.0160651 24.7672C0.0739108 24.9416 0.271472 25.0393 0.457469 24.985C3.98783 23.9554 10.4683 21.1511 14.6457 17.4615C16.8038 15.5558 18.3416 13.4106 18.6041 11.1553C23.4827 8.71137 27.4892 4.27751 30.9146 0.546187C31.0418 0.408515 31.0249 0.19908 30.8772 0.0797643C30.7295 -0.0387169 30.5069 -0.0237047 30.3797 0.114802C27.0941 3.69344 23.2807 7.95042 18.6433 10.3843ZM17.934 10.7389C17.9607 10.1949 17.9037 9.64253 17.7498 9.08517C17.3395 7.59247 15.4537 6.70971 13.5039 6.48443C12.3087 6.34675 11.0797 6.46023 10.1159 6.86407C9.50989 7.11772 9.01061 7.48568 8.70982 7.9863C8.31469 8.64295 8.22925 9.20449 8.39121 9.68092C8.55318 10.1607 8.95547 10.5462 9.47964 10.8557C11.1981 11.8728 14.2052 12.0889 15.5766 11.6642C16.3855 11.4139 17.1704 11.1019 17.934 10.7389Z" fill="#13062B"/>
</svg>
