<svg width="35" height="35" viewBox="0 0 35 35" fill="none" xmlns="http://www.w3.org/2000/svg">
<g clip-path="url(#clip0_776_24)">
<path d="M17.5136 35.0273C27.1862 35.0273 35.0273 27.1862 35.0273 17.5136C35.0273 7.84112 27.1862 0 17.5136 0C7.84112 0 0 7.84112 0 17.5136C0 27.1862 7.84112 35.0273 17.5136 35.0273Z" fill="url(#paint0_linear_776_24)"/>
<path fill-rule="evenodd" clip-rule="evenodd" d="M7.91094 17.3227C13.0123 15.0858 16.4222 13.6399 18.1409 12.9307C22.9967 10.9119 24.006 10.5573 24.6607 10.53C24.7971 10.53 25.1245 10.5573 25.3427 10.721C25.5064 10.8574 25.561 11.0483 25.5883 11.1847C25.6155 11.3211 25.6428 11.6212 25.6155 11.8667C25.3427 14.622 24.2243 21.3601 23.6241 24.4427C23.3786 25.7522 22.8876 26.1886 22.4238 26.2432C21.4145 26.325 20.6233 25.5612 19.6413 24.9338C18.1136 23.9244 17.2406 23.297 15.7403 22.3149C14.0216 21.1692 15.1401 20.5417 16.1222 19.5324C16.3677 19.2596 20.8689 15.1949 20.9507 14.813C20.9507 14.7584 20.978 14.5947 20.8689 14.5129C20.7597 14.431 20.6233 14.4583 20.5142 14.4856C20.3505 14.5129 17.8954 16.1497 13.1214 19.3687C12.4121 19.8597 11.7847 20.078 11.2118 20.078C10.5844 20.078 9.38405 19.7233 8.48382 19.4232C7.39263 19.0686 6.51967 18.8777 6.60151 18.2775C6.65607 17.9774 7.09255 17.6501 7.91094 17.3227Z" fill="white"/>
</g>
<defs>
<linearGradient id="paint0_linear_776_24" x1="0" y1="17.501" x2="35.0019" y2="17.501" gradientUnits="userSpaceOnUse">
<stop stop-color="#2AABEE"/>
<stop offset="1" stop-color="#229ED9"/>
</linearGradient>
<clipPath id="clip0_776_24">
<rect width="35" height="35" fill="white"/>
</clipPath>
</defs>
</svg>
