<svg width="35" height="35" viewBox="0 0 35 35" fill="none" xmlns="http://www.w3.org/2000/svg">
<g clip-path="url(#clip0_777_30)">
<path d="M35 26.1181C35 26.3099 34.994 26.7235 34.982 27.0471C34.9521 27.8322 34.8921 28.845 34.7962 29.3065C34.6524 30.0017 34.4426 30.655 34.161 31.2003C33.8313 31.8476 33.4118 32.4229 32.9084 32.9204C32.411 33.4178 31.8356 33.8373 31.1884 34.167C30.643 34.4486 29.9837 34.6584 29.2825 34.8022C28.8271 34.8921 27.8202 34.958 27.0411 34.982C26.7175 34.994 26.3039 35 26.1122 35H8.87586C8.68408 35 8.27055 34.994 7.94692 34.982C7.16182 34.9521 6.14897 34.8921 5.6875 34.7962C4.99229 34.6524 4.33904 34.4426 3.79366 34.161C3.1464 33.8313 2.57106 33.4118 2.07363 32.9084C1.5762 32.411 1.15668 31.8356 0.827055 31.1884C0.545377 30.643 0.335616 29.9837 0.191781 29.2825C0.101884 28.8271 0.0359589 27.8202 0.0119863 27.0411C0.00599315 26.7235 0 26.3099 0 26.1181V8.88185C0 8.69007 0.00599315 8.27654 0.0179795 7.95291C0.0479452 7.16781 0.107877 6.15497 0.203767 5.69349C0.347603 4.99829 0.557363 4.34503 0.839041 3.79966C1.16866 3.1524 1.58818 2.57705 2.08562 2.07962C2.58305 1.58219 3.15839 1.16267 3.80565 0.833048C4.35103 0.55137 5.01027 0.34161 5.71147 0.197774C6.16695 0.107877 7.1738 0.0419521 7.95291 0.0179795C8.27654 0.00599315 8.69007 0 8.88185 0H26.1181C26.3099 0 26.7235 0.00599315 27.0471 0.0179795C27.8322 0.0479452 28.845 0.107877 29.3065 0.203767C30.0017 0.347603 30.655 0.557363 31.2003 0.839041C31.8476 1.16866 32.4229 1.58818 32.9204 2.09161C33.4178 2.58904 33.8373 3.16438 34.167 3.81164C34.4486 4.35702 34.6584 5.01627 34.8022 5.71747C34.8921 6.17295 34.958 7.17979 34.982 7.9589C34.994 8.28253 35 8.69606 35 8.88784V26.1181Z" fill="url(#paint0_linear_777_30)"/>
<path fill-rule="evenodd" clip-rule="evenodd" d="M26.7054 8.37848C24.3501 6.02317 21.2157 4.72266 17.8775 4.72266C10.9973 4.72266 5.40573 10.3203 5.39973 17.1944C5.39973 19.3939 5.97508 21.5394 7.06583 23.4273L5.29785 29.8939L11.9143 28.1619C13.7362 29.1567 15.7859 29.6781 17.8775 29.6781H17.8835C24.7576 29.6781 30.3552 24.0805 30.3612 17.2064C30.3612 13.8682 29.0607 10.7338 26.7054 8.37848ZM17.8835 27.5685C16.0196 27.5685 14.1917 27.0651 12.6035 26.1242L12.2259 25.9025L8.30042 26.9333L9.34922 23.1096L9.1035 22.7201C8.06669 21.072 7.51532 19.1602 7.51532 17.2004C7.51532 11.4829 12.172 6.83225 17.8895 6.83225C20.6583 6.83225 23.2653 7.91101 25.2191 9.87077C27.1788 11.8305 28.2576 14.4376 28.2516 17.2064C28.2456 22.9179 23.5949 27.5685 17.8835 27.5685ZM23.571 19.8074C23.2593 19.6516 21.7251 18.8965 21.4434 18.7946C21.1557 18.6927 20.952 18.6388 20.7422 18.9504C20.5324 19.262 19.9391 19.9632 19.7533 20.173C19.5735 20.3828 19.3877 20.4067 19.0761 20.2509C18.7645 20.0951 17.7576 19.7655 16.571 18.7047C15.642 17.8776 15.0187 16.8588 14.8389 16.5471C14.6592 16.2355 14.821 16.0677 14.9768 15.9119C15.1146 15.774 15.2884 15.5463 15.4443 15.3665C15.6001 15.1867 15.654 15.0548 15.7559 14.8451C15.8578 14.6353 15.8098 14.4555 15.7319 14.2997C15.654 14.1439 15.0307 12.6096 14.773 11.9864C14.5213 11.381 14.2636 11.459 14.0718 11.453C13.892 11.441 13.6823 11.441 13.4725 11.441C13.2627 11.441 12.9271 11.5189 12.6395 11.8305C12.3518 12.1422 11.5487 12.8973 11.5487 14.4316C11.5487 15.9658 12.6634 17.4461 12.8193 17.6559C12.9751 17.8656 15.0187 21.012 18.1472 22.3605C18.8903 22.6841 19.4717 22.8759 19.9271 23.0197C20.6763 23.2595 21.3535 23.2235 21.8929 23.1456C22.4922 23.0557 23.7388 22.3905 23.9965 21.6653C24.2542 20.9401 24.2542 20.3108 24.1763 20.185C24.0864 20.0411 23.8826 19.9632 23.571 19.8074Z" fill="white"/>
</g>
<defs>
<linearGradient id="paint0_linear_777_30" x1="17.5013" y1="35.0027" x2="17.5013" y2="0" gradientUnits="userSpaceOnUse">
<stop stop-color="#25CF43"/>
<stop offset="1" stop-color="#61FD7D"/>
</linearGradient>
<clipPath id="clip0_777_30">
<rect width="35" height="35" fill="white"/>
</clipPath>
</defs>
</svg>
