<svg version="1.2" xmlns="http://www.w3.org/2000/svg" viewBox="0 0 1508 1508" width="1508" height="1508">
	<title>zoom_logo_icon_189240-svg</title>
	<style>
		.s0 { fill: #518ef7 } 
		.s1 { fill: #fefefe } 
	</style>
	<g id="#518ef7ff">
		<path id="Layer" fill-rule="evenodd" class="s0" d="m167.1 3.6c16.2-3.1 32.8-3.4 49.3-3.5 362 0.2 724 0 1085.9 0.2 50.6-0.6 101.3 17.9 138.6 52.2 43 38.2 67.5 95.5 66.8 152.9 0.1 351.1 0 702.3 0 1053.4-0.4 28.2 1.7 56.8-3.8 84.7-11.3 61.4-53 116.2-109.2 143.3-29.6 14.9-62.9 21.3-95.8 21-348.7 0.1-697.4 0-1046.1 0-36.4-0.3-73.8 2.4-108.9-9-65.6-19.3-119.1-74.3-136.4-140.4-9.1-31.2-7-64-7.2-96.2 0-352.2-0.1-704.5 0-1056.8-0.4-46.9 15.5-94 45.3-130.3 30.2-37.4 74.1-63.3 121.5-71.5zm178.6 496.8c-25.9 7.4-45.4 32.6-45.5 59.7-0.3 96.3-0.1 192.6-0.1 288.9-0.3 24.9 4.8 50 15.8 72.3 25.3 53.7 82.9 89.6 142.1 88.9q217.6 0.1 435.1 0c33.6 1 64.1-28.5 64-62.1 0.3-92.7 0-185.4 0.2-278.1 0.5-21.7-1-43.8-8.2-64.4-19.7-62.5-82-107.9-147.5-107.7-141.5-0.3-283 0-424.5-0.2-10.4 0-21.2-0.4-31.4 2.7zm819.2-0.4c-4.2 1.3-7.5 4.1-10.6 7-48 45.9-95.7 92-144 137.6-10.6 10.2-15.5 25.1-14.9 39.7 0 52.5-0.2 105.1 0 157.6-0.1 15.2 7 29.9 18.6 39.6 47.4 40.5 94.7 81.2 142.1 121.7 18.2 16.5 51 2.2 51.7-22.4 0.7-146.3 0-292.6 0.4-439-0.1-9.6 0.7-20.1-5-28.5-7.5-12.8-24.5-18.7-38.3-13.3z"/>
	</g>
	<g id="#fefefeff">
		<path id="Layer" class="s1" d="m345.7 500.4c10.2-3.1 21-2.7 31.4-2.7 141.5 0.2 283-0.1 424.5 0.2 65.5-0.2 127.8 45.2 147.5 107.7 7.2 20.6 8.7 42.7 8.2 64.4-0.2 92.7 0.1 185.4-0.2 278.1 0.1 33.6-30.4 63.1-64 62.1q-217.5 0.1-435.1 0c-59.2 0.7-116.8-35.2-142.1-88.9-11-22.3-16.1-47.4-15.8-72.3 0-96.3-0.2-192.6 0.1-288.9 0.1-27.1 19.6-52.3 45.5-59.7z"/>
		<path id="Layer" class="s1" d="m1164.9 500c13.8-5.4 30.8 0.5 38.3 13.3 5.7 8.4 4.9 18.9 5 28.5-0.4 146.4 0.3 292.7-0.4 439-0.7 24.6-33.5 38.9-51.7 22.4-47.4-40.5-94.7-81.2-142.1-121.7-11.6-9.7-18.7-24.4-18.6-39.6-0.2-52.5 0-105.1 0-157.6-0.6-14.6 4.3-29.5 14.9-39.7 48.3-45.6 96-91.7 144-137.6 3.1-2.9 6.4-5.7 10.6-7z"/>
	</g>
</svg>